HIERARCHY
ROOT Hips
{
	OFFSET 0.00000 0.00000 0.00000
	CHANNELS 6 Xposition Yposition Zposition Zrotation Yrotation Xrotation 
	JOINT LHipJoint
	{
		OFFSET 0 0 0
		CHANNELS 3 Zrotation Yrotation Xrotation
		JOINT LeftHip
		{
			OFFSET 1.57338 -1.94743 0.52196
			CHANNELS 3 Zrotation Yrotation Xrotation
			JOINT LeftKnee
			{
				OFFSET 2.60333 -7.15259 0.00000
				CHANNELS 3 Zrotation Yrotation Xrotation
				JOINT LeftAnkle
				{
					OFFSET 2.77855 -7.63400 0.00000
					CHANNELS 3 Zrotation Yrotation Xrotation
					JOINT LeftToe
					{
						OFFSET 0.19847 -0.54529 2.28466
						CHANNELS 3 Zrotation Yrotation Xrotation
						End Site
						{
							OFFSET 0.00000 -0.00000 1.17993
						}
					}
				}
			}
		}
	}
	JOINT RHipJoint
	{
		OFFSET 0 0 0
		CHANNELS 3 Zrotation Yrotation Xrotation
		JOINT RightHip
		{
			OFFSET -1.61527 -1.94743 0.52196
			CHANNELS 3 Zrotation Yrotation Xrotation
			JOINT RightKnee
			{
				OFFSET -2.53829 -6.97390 0.00000
				CHANNELS 3 Zrotation Yrotation Xrotation
				JOINT RightAnkle
				{
					OFFSET -2.80762 -7.71387 0.00000
					CHANNELS 3 Zrotation Yrotation Xrotation
					JOINT RightToe
					{
						OFFSET -0.30536 -0.83898 2.28801
						CHANNELS 3 Zrotation Yrotation Xrotation
						End Site
						{
							OFFSET -0.00000 -0.00000 1.21323
						}
					}
				}
			}
		}
	}
	JOINT lowerback
	{
		OFFSET 0 0 0
		CHANNELS 3 Zrotation Yrotation Xrotation
		JOINT Chest
		{
			OFFSET -0.04381 1.99497 -0.19778
			CHANNELS 3 Zrotation Yrotation Xrotation
			JOINT Chest2
			{
				OFFSET -0.01959 2.01295 -0.04372
				CHANNELS 3 Zrotation Yrotation Xrotation
				JOINT lowerneck
				{
					OFFSET 0 0 0
					CHANNELS 3 Zrotation Yrotation Xrotation
					JOINT Neck
					{
						OFFSET -0.05459 1.76913 0.09708
						CHANNELS 3 Zrotation Yrotation Xrotation
						JOINT Head
						{
							OFFSET 0.09461 1.77368 -0.11172
							CHANNELS 3 Zrotation Yrotation Xrotation
							End Site
							{
								OFFSET 0.03812 1.78157 -0.04834
							}
						}
					}
				}
				JOINT LeftCollar
				{
					OFFSET 0 0 0
					CHANNELS 3 Zrotation Yrotation Xrotation
					JOINT LeftShoulder
					{
						OFFSET 3.50922 1.24034 -0.28866
CHANNELS 3 Zrotation Xrotation Yrotation
						JOINT LeftElbow
						{
OFFSET 0 -5.401880 0.000000
CHANNELS 3 Zrotation Xrotation Yrotation
							JOINT LeftWrist
							{
OFFSET 0 -3.685590 0.000000
CHANNELS 3 Zrotation Xrotation Yrotation
								JOINT lhand
								{
									OFFSET 0 0 0
CHANNELS 3 Zrotation Xrotation Yrotation
									JOINT LFingers
									{
OFFSET 0 -0.617530 0.000000
CHANNELS 3 Zrotation Xrotation Yrotation
										End Site
										{
OFFSET 0 -0.497870 0.000000
										}
									}
								}
								JOINT LThumb
								{
OFFSET 0 0.000000 0.000000
CHANNELS 3 Zrotation Xrotation Yrotation
									End Site
									{
OFFSET 0 -0.505470 0.505470
									}
								}
							}
						}
					}
				}
				JOINT RightCollar
				{
					OFFSET 0 0 0
					CHANNELS 3 Zrotation Yrotation Xrotation
					JOINT RightShoulder
					{
						OFFSET -2.95373 1.39649 -0.27346
CHANNELS 3 Zrotation Xrotation Yrotation
						JOINT RightElbow
						{
OFFSET 0 -6.106700 -0.000000
CHANNELS 3 Zrotation Xrotation Yrotation
							JOINT RightWrist
							{
OFFSET 0 -3.630520 0.000000
CHANNELS 3 Zrotation Xrotation Yrotation
								JOINT rhand
								{
									OFFSET 0 0 0
CHANNELS 3 Zrotation Xrotation Yrotation
									JOINT RFingers
									{
OFFSET 0 -0.583850 0.000000
CHANNELS 3 Zrotation Xrotation Yrotation
										End Site
										{
OFFSET 0 -0.470710 0.000000
										}
									}
								}
								JOINT RThumb
								{
OFFSET 0 0.000000 0.000000
CHANNELS 3 Zrotation Xrotation Yrotation
									End Site
									{
OFFSET 0 -0.477900 0.477900
									}
								}
							}
						}
					}
				}
			}
		}
	}
}
MOTION
Frames: 6
Frame Time: 0.008333333333333333
2.178491 34.232482 -5.128190 173.210629 -81.523883 -170.839170 0.000000 0.000000 0.000000 -17.023274 -14.821058 -24.354293 4.537669 12.843368 38.785028 -0.374597 -12.205447 10.628248 1.103866 6.674970 18.756162 0.000000 0.000000 0.000000 36.561293 17.688210 4.796448 -1.967419 -8.797955 25.165175 0.136898 -25.254386 -34.706626 -0.005709 -0.486762 1.337453 1.087638 10.677538 8.816542 -3.480666 14.121591 -0.459061 -5.809328 6.939037 -4.169349 -20.611214 -13.393696 66.370293 53.489298 -25.452855 -32.797966 44.470817 -21.116393 -7.940792 0.000000 0.000000 0.000000 16.051380 9.413775 -11.369231 24.348244 -35.530179 7.908060 13.053789 -0.145014 -18.556940 0.000000 0.000000 0.000000 -7.125000 0.000000 0.000000 -14.627194 48.435304 1.264537 0.000000 0.000000 0.000000 2.727142 5.946732 -15.148686 -83.074984 -59.817980 -54.006396 -145.775287 -73.308137 -42.153972 0.000000 0.000000 0.000000 7.125000 0.000000 0.000000 178.622507 -17.632273 -179.104264
2.175582 34.241338 -5.109221 172.924033 -80.778685 -170.408861 0.000000 0.000000 0.000000 -16.922736 -15.320212 -24.090925 4.458347 12.746607 38.427033 -0.322336 -11.572783 10.470396 1.290081 7.196370 20.298736 0.000000 0.000000 0.000000 36.180030 17.781581 4.597962 -1.992561 -8.850576 25.329040 0.061138 -24.712483 -34.392051 -0.004256 -0.417790 1.148012 0.969585 10.608435 8.617007 -3.518845 14.016518 -0.437414 -5.734604 6.892996 -4.065369 -21.037934 -12.784526 66.343256 53.320626 -25.210344 -32.514948 44.818117 -20.875049 -7.993687 0.000000 0.000000 0.000000 15.410711 9.379956 -10.913016 23.850198 -35.005210 7.620514 12.858209 0.297224 -18.706248 0.000000 0.000000 0.000000 -7.125000 0.000000 0.000000 -14.864600 48.553786 1.330114 0.000000 0.000000 0.000000 2.607811 5.231454 -15.462181 -83.081264 -59.818340 -54.011863 -145.269864 -71.769156 -43.046070 0.000000 0.000000 0.000000 7.125000 0.000000 0.000000 178.586021 -18.694727 -179.113667
2.167511 34.248912 -5.074709 174.184768 -79.885080 -171.355326 0.000000 0.000000 0.000000 -16.766139 -15.605391 -23.986258 4.365752 12.631826 38.005518 -0.367316 -11.682954 9.388555 0.921871 6.114127 17.116883 0.000000 0.000000 0.000000 35.828510 17.779216 4.135921 -2.017133 -8.901703 25.488255 0.081618 -24.106034 -33.427126 -0.000780 -0.171588 0.471451 1.305059 10.623651 8.211643 -3.609863 14.074637 -0.460579 -5.908849 6.929741 -3.759265 -21.289931 -12.319835 66.319907 53.169029 -24.974737 -32.271381 45.142522 -20.655027 -8.090801 0.000000 0.000000 0.000000 14.918585 9.063073 -10.652735 23.374857 -34.496111 7.349529 11.391325 0.986179 -19.264838 0.000000 0.000000 0.000000 -7.125000 0.000000 0.000000 -16.447928 48.885714 1.617338 0.000000 0.000000 0.000000 2.692557 4.496643 -15.982568 -83.107307 -59.819672 -54.034427 -144.801176 -70.272919 -43.865921 0.000000 0.000000 0.000000 7.125000 0.000000 0.000000 178.542588 -19.669638 -179.117921
2.150889 34.258804 -5.058600 174.819623 -79.170528 -171.911922 0.000000 0.000000 0.000000 -16.614772 -16.092757 -23.485281 4.264990 12.504859 37.542323 -0.386929 -11.611044 8.416733 0.788306 5.666686 15.820726 0.000000 0.000000 0.000000 35.665453 17.809534 4.145452 -2.020698 -8.909113 25.511448 0.107489 -23.799082 -32.838579 -0.000429 0.118544 -0.325590 1.281228 10.492044 7.980391 -3.619514 13.898965 -0.502291 -5.850148 6.845221 -3.697008 -21.714731 -11.595471 66.381013 52.842671 -24.669613 -31.750704 45.561788 -20.335639 -8.192280 0.000000 0.000000 0.000000 14.362359 8.956520 -10.332524 22.991052 -34.078983 7.133290 11.682299 1.354044 -18.755020 0.000000 0.000000 0.000000 -7.125000 0.000000 0.000000 -15.978548 48.433017 1.387043 0.000000 0.000000 0.000000 2.699134 3.647605 -16.116988 -82.479700 -59.785083 -53.491935 -144.378445 -68.652598 -44.646224 0.000000 0.000000 0.000000 7.125000 0.000000 0.000000 178.478798 -20.587494 -179.110622
2.144546 34.267897 -5.037029 175.110384 -78.611716 -172.017985 0.000000 0.000000 0.000000 -16.489766 -16.653118 -23.123993 4.135886 12.338949 36.942064 -0.362699 -11.132104 7.730222 0.835979 5.831913 16.297694 0.000000 0.000000 0.000000 35.413191 17.849211 3.947005 -2.023629 -8.915178 25.530308 0.115704 -23.454996 -32.302693 -0.002172 0.300934 -0.826826 1.307599 10.351448 7.875543 -3.706868 13.711442 -0.678976 -5.938957 6.745722 -3.815792 -22.014586 -10.939456 66.610431 52.640078 -24.289926 -31.323585 45.883847 -20.041800 -8.333462 0.000000 0.000000 0.000000 13.955743 8.858498 -10.584205 22.802472 -33.872179 7.027926 12.538547 0.886027 -18.203971 0.000000 0.000000 0.000000 -7.125000 0.000000 0.000000 -14.978080 48.016367 1.138550 0.000000 0.000000 0.000000 2.923924 2.963819 -16.380637 -82.101112 -59.762942 -53.164839 -143.930215 -67.045751 -45.439657 0.000000 0.000000 0.000000 7.125000 0.000000 0.000000 178.410974 -21.522102 -179.104390
2.124481 34.282414 -5.030688 172.946441 -77.814711 -169.953853 0.000000 0.000000 0.000000 -17.079823 -17.338707 -21.990679 3.928566 12.064719 35.961357 -0.389927 -11.208599 6.503650 0.709243 5.382287 15.002290 0.000000 0.000000 0.000000 34.734302 17.995916 4.138872 -2.052004 -8.973609 25.712727 0.075412 -23.028693 -31.961992 -0.011213 0.683147 -1.877454 0.652146 10.290429 7.598286 -3.855487 13.556714 -0.555514 -5.677894 6.682715 -3.662796 -22.299393 -10.355024 66.529388 52.460583 -23.915465 -30.914150 46.120544 -19.748100 -8.445260 0.000000 0.000000 0.000000 13.625685 8.408533 -11.105912 22.737776 -33.800774 6.991887 13.134229 0.296543 -18.367754 0.000000 0.000000 0.000000 -7.125000 0.000000 0.000000 -14.483584 48.260816 1.188270 0.000000 0.000000 0.000000 4.117955 -0.062503 -17.130296 -79.385944 -59.570045 -50.821235 -143.662949 -63.845209 -45.849650 0.000000 0.000000 0.000000 7.125000 0.000000 0.000000 178.387707 -22.016095 -179.109368
